<?xml version="1.0" encoding="UTF-8" standalone="no"?>
<!-- Created with Inkscape (http://www.inkscape.org/) -->

<svg
   width="1024"
   height="768"
   viewBox="0 0 1024 768"
   version="1.1"
   id="svg1"
   inkscape:version="1.4.3 (0d15f75042, 2025-12-25)"
   sodipodi:docname="ps4-controller-draft.svg"
   xmlns:inkscape="http://www.inkscape.org/namespaces/inkscape"
   xmlns:sodipodi="http://sodipodi.sourceforge.net/DTD/sodipodi-0.dtd"
   xmlns="http://www.w3.org/2000/svg"
   xmlns:svg="http://www.w3.org/2000/svg">
  <sodipodi:namedview
     id="namedview1"
     pagecolor="#505050"
     bordercolor="#eeeeee"
     borderopacity="1"
     inkscape:showpageshadow="0"
     inkscape:pageopacity="0"
     inkscape:pagecheckerboard="0"
     inkscape:deskcolor="#505050"
     inkscape:document-units="px"
     inkscape:zoom="0.80371094"
     inkscape:cx="680.59295"
     inkscape:cy="230.18226"
     inkscape:window-width="2560"
     inkscape:window-height="1368"
     inkscape:window-x="0"
     inkscape:window-y="0"
     inkscape:window-maximized="1"
     inkscape:current-layer="layer1" />
  <defs
     id="defs1">
    <inkscape:path-effect
       effect="fillet_chamfer"
       id="path-effect45"
       is_visible="true"
       lpeversion="1"
       nodesatellites_param="F,0,0,1,0,6,0,1 @ F,0,0,1,0,6,0,1 @ F,0,0,1,0,6,0,1 @ F,0,0,1,0,6,0,1"
       radius="6"
       unit="px"
       method="auto"
       mode="F"
       chamfer_steps="1"
       flexible="false"
       use_knot_distance="true"
       apply_no_radius="true"
       apply_with_radius="true"
       only_selected="false"
       hide_knots="false" />
    <inkscape:path-effect
       effect="fillet_chamfer"
       id="path-effect43"
       is_visible="true"
       lpeversion="1"
       nodesatellites_param="F,0,0,1,0,6,0,1 @ F,0,0,1,0,6,0,1 @ F,0,0,1,0,6,0,1 @ F,0,0,1,0,6,0,1"
       radius="6"
       unit="px"
       method="auto"
       mode="F"
       chamfer_steps="1"
       flexible="false"
       use_knot_distance="true"
       apply_no_radius="true"
       apply_with_radius="true"
       only_selected="false"
       hide_knots="false" />
    <inkscape:path-effect
       effect="fillet_chamfer"
       id="path-effect40"
       is_visible="true"
       lpeversion="1"
       nodesatellites_param="F,0,0,1,0,6,0,1 @ F,0,0,1,0,6,0,1 @ F,0,0,1,0,6,0,1 @ F,0,0,1,0,6,0,1"
       radius="6"
       unit="px"
       method="auto"
       mode="F"
       chamfer_steps="1"
       flexible="false"
       use_knot_distance="true"
       apply_no_radius="true"
       apply_with_radius="true"
       only_selected="false"
       hide_knots="false" />
    <inkscape:path-effect
       effect="fillet_chamfer"
       id="path-effect36"
       is_visible="true"
       lpeversion="1"
       nodesatellites_param="F,0,0,1,0,6,0,1 @ F,0,0,1,0,6,0,1 @ F,0,0,1,0,6,0,1 @ F,0,0,1,0,6,0,1"
       radius="6"
       unit="px"
       method="auto"
       mode="F"
       chamfer_steps="1"
       flexible="false"
       use_knot_distance="true"
       apply_no_radius="true"
       apply_with_radius="true"
       only_selected="false"
       hide_knots="false" />
    <inkscape:path-effect
       effect="fillet_chamfer"
       id="path-effect34"
       is_visible="true"
       lpeversion="1"
       nodesatellites_param="F,0,0,1,0,6,0,1 @ F,0,0,1,0,6,0,1 @ F,0,0,1,0,6,0,1 @ F,0,0,1,0,6,0,1"
       radius="6"
       unit="px"
       method="auto"
       mode="F"
       chamfer_steps="1"
       flexible="false"
       use_knot_distance="true"
       apply_no_radius="true"
       apply_with_radius="true"
       only_selected="false"
       hide_knots="false" />
    <inkscape:path-effect
       effect="fillet_chamfer"
       id="path-effect31"
       is_visible="true"
       lpeversion="1"
       nodesatellites_param="F,0,0,1,0,6,0,1 @ F,0,0,1,0,6,0,1 @ F,0,0,1,0,6,0,1 @ F,0,0,1,0,6,0,1"
       radius="6"
       unit="px"
       method="auto"
       mode="F"
       chamfer_steps="1"
       flexible="false"
       use_knot_distance="true"
       apply_no_radius="true"
       apply_with_radius="true"
       only_selected="false"
       hide_knots="false" />
    <inkscape:path-effect
       effect="fillet_chamfer"
       id="path-effect29"
       is_visible="true"
       lpeversion="1"
       nodesatellites_param="F,0,0,1,0,6,0,1 @ F,0,0,1,0,6,0,1 @ F,0,0,1,0,6,0,1 @ F,0,0,1,0,6,0,1"
       radius="6"
       unit="px"
       method="auto"
       mode="F"
       chamfer_steps="1"
       flexible="false"
       use_knot_distance="true"
       apply_no_radius="true"
       apply_with_radius="true"
       only_selected="false"
       hide_knots="false" />
    <inkscape:path-effect
       effect="fillet_chamfer"
       id="path-effect27"
       is_visible="true"
       lpeversion="1"
       nodesatellites_param="F,0,0,1,0,0,0,1 @ F,0,0,1,0,0,0,1 @ F,0,1,1,0,6,0,1 @ F,0,1,1,0,6,0,1"
       radius="6"
       unit="px"
       method="auto"
       mode="F"
       chamfer_steps="1"
       flexible="false"
       use_knot_distance="true"
       apply_no_radius="true"
       apply_with_radius="true"
       only_selected="true"
       hide_knots="false" />
    <inkscape:path-effect
       effect="fillet_chamfer"
       id="path-effect26"
       is_visible="true"
       lpeversion="1"
       nodesatellites_param="F,0,0,1,0,6,0,1 @ F,0,0,1,0,6,0,1 @ F,0,0,1,0,6,0,1 @ F,0,0,1,0,6,0,1"
       radius="6"
       unit="px"
       method="auto"
       mode="F"
       chamfer_steps="1"
       flexible="false"
       use_knot_distance="true"
       apply_no_radius="true"
       apply_with_radius="true"
       only_selected="true"
       hide_knots="false" />
    <inkscape:path-effect
       effect="fillet_chamfer"
       id="path-effect24"
       is_visible="true"
       lpeversion="1"
       nodesatellites_param="F,0,0,1,0,6,0,1 @ F,0,0,1,0,6,0,1 @ F,0,0,1,0,6,0,1 @ F,0,0,1,0,6,0,1 @ F,0,0,1,0,6,0,1"
       radius="6"
       unit="px"
       method="auto"
       mode="F"
       chamfer_steps="1"
       flexible="false"
       use_knot_distance="true"
       apply_no_radius="true"
       apply_with_radius="true"
       only_selected="false"
       hide_knots="false" />
    <inkscape:path-effect
       effect="fillet_chamfer"
       id="path-effect22"
       is_visible="true"
       lpeversion="1"
       nodesatellites_param="F,0,0,1,0,6,0,1 @ F,0,0,1,0,6,0,1 @ F,0,0,1,0,6,0,1 @ F,0,0,1,0,6,0,1 @ F,0,0,1,0,6,0,1"
       radius="6"
       unit="px"
       method="auto"
       mode="F"
       chamfer_steps="1"
       flexible="false"
       use_knot_distance="true"
       apply_no_radius="true"
       apply_with_radius="true"
       only_selected="false"
       hide_knots="false" />
    <inkscape:path-effect
       effect="fillet_chamfer"
       id="path-effect20"
       is_visible="true"
       lpeversion="1"
       nodesatellites_param="F,0,0,1,0,6,0,1 @ F,0,0,1,0,6,0,1 @ F,0,0,1,0,6,0,1 @ F,0,0,1,0,6,0,1 @ F,0,0,1,0,6,0,1"
       radius="6"
       unit="px"
       method="auto"
       mode="F"
       chamfer_steps="1"
       flexible="false"
       use_knot_distance="true"
       apply_no_radius="true"
       apply_with_radius="true"
       only_selected="false"
       hide_knots="false" />
    <inkscape:path-effect
       effect="fillet_chamfer"
       id="path-effect18"
       is_visible="true"
       lpeversion="1"
       nodesatellites_param="F,0,0,1,0,6,0,1 @ F,0,0,1,0,6,0,1 @ F,0,0,1,0,6,0,1 @ F,0,0,1,0,6,0,1 @ F,0,0,1,0,6,0,1"
       radius="6"
       unit="px"
       method="auto"
       mode="F"
       chamfer_steps="1"
       flexible="false"
       use_knot_distance="true"
       apply_no_radius="true"
       apply_with_radius="true"
       only_selected="false"
       hide_knots="false" />
    <inkscape:path-effect
       effect="fillet_chamfer"
       id="path-effect16"
       is_visible="true"
       lpeversion="1"
       nodesatellites_param="F,0,0,1,0,6,0,1 @ F,0,0,1,0,6,0,1 @ F,0,0,1,0,6,0,1 @ F,0,0,1,0,6,0,1 @ F,0,0,1,0,6,0,1"
       radius="6"
       unit="px"
       method="auto"
       mode="F"
       chamfer_steps="1"
       flexible="false"
       use_knot_distance="true"
       apply_no_radius="true"
       apply_with_radius="true"
       only_selected="false"
       hide_knots="false" />
    <inkscape:path-effect
       effect="fillet_chamfer"
       id="path-effect15"
       is_visible="true"
       lpeversion="1"
       nodesatellites_param="F,0,0,1,0,0,0,1 @ F,0,0,1,0,0,0,1 @ F,0,0,1,0,0,0,1 @ F,0,0,1,0,0,0,1 @ F,0,0,1,0,0,0,1 @ F,0,0,1,0,0,0,1 @ F,0,0,1,0,0,0,1 @ F,0,0,1,0,0,0,1"
       radius="0"
       unit="px"
       method="auto"
       mode="F"
       chamfer_steps="1"
       flexible="false"
       use_knot_distance="true"
       apply_no_radius="true"
       apply_with_radius="true"
       only_selected="false"
       hide_knots="false" />
    <inkscape:path-effect
       effect="fillet_chamfer"
       id="path-effect14"
       is_visible="true"
       lpeversion="1"
       nodesatellites_param="F,0,0,1,0,6,0,1 @ F,0,0,1,0,6,0,1 @ F,0,0,1,0,6,0,1 @ F,0,0,1,0,6,0,1"
       radius="0"
       unit="px"
       method="auto"
       mode="F"
       chamfer_steps="1"
       flexible="false"
       use_knot_distance="true"
       apply_no_radius="true"
       apply_with_radius="true"
       only_selected="true"
       hide_knots="false" />
  </defs>
  <g
     inkscape:label="Layer 1"
     inkscape:groupmode="layer"
     id="layer1">
    <circle
       style="display:inline;vector-effect:non-scaling-stroke;fill:none;stroke:#000000;stroke-width:0.932477;stroke-dasharray:none;-inkscape-stroke:hairline"
       id="face_buttons_well"
       cx="926.08569"
       cy="209.679"
       inkscape:export-filename="ps4-controller.svg"
       inkscape:export-xdpi="96"
       inkscape:export-ydpi="96"
       r="145" />
    <circle
       style="vector-effect:non-scaling-stroke;fill:none;stroke:#000000;stroke-width:0.898907;stroke-dasharray:none;-inkscape-stroke:hairline"
       id="south"
       cx="927.26709"
       cy="294.67899"
       inkscape:label="south"
       r="40" />
    <circle
       style="vector-effect:non-scaling-stroke;fill:none;stroke:#000000;stroke-width:0.898907;stroke-dasharray:none;-inkscape-stroke:hairline"
       id="north"
       cx="927.26709"
       cy="124.679"
       inkscape:label="north"
       r="40" />
    <circle
       style="vector-effect:non-scaling-stroke;fill:none;stroke:#000000;stroke-width:0.898907;stroke-dasharray:none;-inkscape-stroke:hairline"
       id="east"
       cx="1012.267"
       cy="209.679"
       inkscape:label="east"
       r="40" />
    <circle
       style="vector-effect:non-scaling-stroke;fill:none;stroke:#000000;stroke-width:0.898907;stroke-dasharray:none;-inkscape-stroke:hairline"
       id="west"
       cx="842.26703"
       cy="209.679"
       inkscape:label="west"
       r="40" />
    <circle
       style="vector-effect:non-scaling-stroke;fill:none;stroke:#000000;stroke-width:0.871504;stroke-dasharray:none;-inkscape-stroke:hairline"
       id="right_analog"
       cx="756.448"
       cy="384.67899"
       r="65"
       inkscape:label="right analog" />
    <circle
       style="vector-effect:non-scaling-stroke;fill:none;stroke:#000000;stroke-width:0.905023;stroke-dasharray:none;-inkscape-stroke:hairline"
       id="right_analog_well"
       cx="756.448"
       cy="384.67899"
       r="90" />
    <circle
       style="vector-effect:non-scaling-stroke;fill:none;stroke:#000000;stroke-width:0.905023;stroke-dasharray:none;-inkscape-stroke:hairline"
       id="left_analog_well"
       cx="-367.55164"
       cy="384.67899"
       transform="scale(-1,1)"
       r="90" />
    <path
       id="rect9"
       style="display:none;vector-effect:non-scaling-stroke;fill:none;stroke:#000000;-inkscape-stroke:hairline"
       transform="matrix(-1,0,0,1,-3.5373003,-20.000075)"
       d="m -276.46643,18.454075 h 150.03087 a 8.1306327,8.1306327 36.425469 0 1 7.76915,5.733245 l 21.461258,69.548944 a 4.4276997,4.4276997 126.42547 0 1 -4.230848,5.733245 h -200.03 a 4.4276992,4.4276992 53.574534 0 1 -4.23085,-5.733245 l 21.46127,-69.548944 a 8.1306336,8.1306336 143.57453 0 1 7.76915,-5.733245 z"
       sodipodi:nodetypes="ccccc"
       inkscape:path-effect="#path-effect29"
       inkscape:original-d="m -282.46643,18.454075 h 162.03087 L -95.436,99.469509 h -212.03 z"
       inkscape:label="left shoulder" />
    <circle
       style="display:inline;vector-effect:non-scaling-stroke;fill:none;stroke:#000000;stroke-width:0.932477;stroke-dasharray:none;-inkscape-stroke:hairline"
       id="d-pad_well"
       cx="-197.9137"
       cy="209.679"
       transform="scale(-1,1)"
       r="145" />
    <rect
       style="display:none;vector-effect:non-scaling-stroke;fill:none;stroke:#000000;stroke-width:1.41024;stroke-dasharray:none;-inkscape-stroke:hairline"
       id="rect10"
       width="679.28699"
       height="420"
       x="-901.64343"
       y="33.346577"
       transform="scale(-1,1)" />
    <ellipse
       style="display:none;vector-effect:non-scaling-stroke;fill:none;stroke:#000000;stroke-width:1.12873;stroke-dasharray:none;-inkscape-stroke:hairline"
       id="ellipse10"
       cx="-257.62573"
       cy="220.26039"
       rx="188.039"
       ry="324.69"
       transform="matrix(-0.76948325,-0.63866699,-0.27883903,0.96033785,0,0)" />
    <circle
       style="vector-effect:non-scaling-stroke;fill:none;stroke:#000000;stroke-width:0.871504;stroke-dasharray:none;-inkscape-stroke:hairline"
       id="left_analog"
       cx="-367.55164"
       cy="384.67899"
       transform="scale(-1,1)"
       r="65"
       inkscape:label="left analog" />
    <path
       id="d-pad_down"
       style="vector-effect:non-scaling-stroke;fill:none;stroke:#000000;-inkscape-stroke:hairline"
       d="m 405.77743,459.19757 -25.8283,38.61407 a 19.762026,19.762026 106.88895 0 0 -3.33585,10.98719 l 0,58.00009 a 6,6 45 0 0 6,6 h 53 a 6,6 135 0 0 6,-6 v -58.00009 a 19.762026,19.762026 73.11105 0 0 -3.33585,-10.98719 l -25.8283,-38.61407 a 4.0132995,4.0132995 0 0 0 -6.6717,0 z"
       inkscape:path-effect="#path-effect16"
       inkscape:original-d="m 409.11328,454.21038 -32.5,48.58845 v 70.00009 h 65 v -70.00009 z"
       transform="matrix(1.0769231,0,0,0.78000855,-242.66985,-132.10905)"
       sodipodi:nodetypes="cccccc"
       inkscape:label="d-pad down" />
    <path
       id="d-pad_up"
       style="vector-effect:non-scaling-stroke;fill:none;stroke:#000000;-inkscape-stroke:hairline"
       d="m 405.77742,459.1978 -25.82828,38.61384 a 19.761949,19.761949 106.88901 0 0 -3.33586,10.98719 v 58.00009 a 6,6 45 0 0 6,6 h 53 a 6,6 135 0 0 6,-6 v -58.00009 a 19.761949,19.761949 73.110987 0 0 -3.33586,-10.98719 L 412.44914,459.1978 a 4.0133185,4.0133185 0 0 0 -6.67172,0 z"
       inkscape:path-effect="#path-effect18"
       inkscape:original-d="m 409.11328,454.21061 -32.5,48.58822 v 70.00009 h 65 v -70.00009 z"
       transform="matrix(1.0769231,0,0,-0.78001004,-242.66954,551.46791)"
       sodipodi:nodetypes="cccccc"
       inkscape:label="d-pad up" />
    <path
       id="d-pad_left"
       style="vector-effect:non-scaling-stroke;fill:none;stroke:#000000;-inkscape-stroke:hairline"
       d="m 405.77747,459.19674 -25.82838,38.61487 a 19.762317,19.762317 106.88872 0 0 -3.33581,10.98722 l 0,58.00009 a 6,6 45 0 0 6,6 h 53 a 6,6 135 0 0 6,-6 v -58.00009 a 19.762317,19.762317 73.111284 0 0 -3.33581,-10.98722 l -25.82838,-38.61487 a 4.0132284,4.0132284 0 0 0 -6.67162,0 z"
       inkscape:path-effect="#path-effect20"
       inkscape:original-d="m 409.11328,454.20952 -32.5,48.58931 v 70.00009 h 65 v -70.00009 z"
       transform="matrix(0,1.0769231,-0.78000295,0,539.69885,-230.90454)"
       sodipodi:nodetypes="cccccc"
       inkscape:label="d-pad left" />
    <path
       id="d-pad_right"
       style="vector-effect:non-scaling-stroke;fill:none;stroke:#000000;-inkscape-stroke:hairline"
       d="m 405.77744,459.19731 -25.82832,38.61432 a 19.762118,19.762118 106.88888 0 0 -3.33584,10.9872 l 0,58.00009 a 6,6 45 0 0 6,6 h 53 a 6,6 135 0 0 6,-6 v -58.00009 a 19.762118,19.762118 73.111123 0 0 -3.33584,-10.9872 l -25.82832,-38.61432 a 4.0132772,4.0132772 0 0 0 -6.67168,0 z"
       inkscape:path-effect="#path-effect22"
       inkscape:original-d="m 409.11328,454.21011 -32.5,48.58872 v 70.00009 h 65 v -70.00009 z"
       transform="matrix(0,1.0769231,0.78000679,0,-143.87305,-230.90454)"
       sodipodi:nodetypes="cccccc"
       inkscape:label="d-pad right" />
    <circle
       style="vector-effect:non-scaling-stroke;fill:none;stroke:#000000;stroke-width:0.786544;stroke-dasharray:none;-inkscape-stroke:hairline"
       id="menu"
       cx="561.99982"
       cy="379.67899"
       inkscape:label="menu"
       r="35" />
    <rect
       style="vector-effect:non-scaling-stroke;fill:none;stroke:#000000;stroke-width:0.83666;stroke-dasharray:none;-inkscape-stroke:hairline"
       id="select"
       width="40"
       height="70"
       x="322.35599"
       y="53.347"
       rx="24"
       inkscape:label="select" />
    <rect
       style="vector-effect:non-scaling-stroke;fill:none;stroke:#000000;stroke-width:0.83666;stroke-dasharray:none;-inkscape-stroke:hairline"
       id="start"
       width="40"
       height="70"
       x="761.64301"
       y="53.347"
       rx="24"
       inkscape:label="start" />
    <path
       id="trackpad"
       style="vector-effect:non-scaling-stroke;fill:none;stroke:#000000;stroke-width:1.0768;-inkscape-stroke:hairline"
       d="m 391.99979,52.257595 h 290 V 276.2576 a 6,6 135 0 1 -6,6 l -278,0 a 6,6 45 0 1 -6,-6 z"
       inkscape:path-effect="#path-effect27"
       inkscape:original-d="m 391.99979,52.257595 h 290 V 282.2576 h -290 z"
       transform="matrix(1.2413793,0,0,1,-104.62058,-18.911018)"
       inkscape:label="trackpad"
       inkscape:export-filename="ps4-controller.svg"
       inkscape:export-xdpi="96"
       inkscape:export-ydpi="96" />
    <ellipse
       style="display:none;vector-effect:non-scaling-stroke;fill:none;stroke:#000000;stroke-width:1.12873;stroke-dasharray:none;-inkscape-stroke:hairline"
       id="ellipse31"
       cx="919.43188"
       cy="1003.0556"
       rx="188.039"
       ry="324.69"
       transform="matrix(0.76948325,-0.63866699,0.27883903,0.96033785,0,0)" />
    <path
       id="path39"
       style="display:none;vector-effect:non-scaling-stroke;fill:none;stroke:#000000;-inkscape-stroke:hairline"
       transform="matrix(-1,0,0,1,724.6347,-20.000075)"
       d="m -276.46643,18.454075 h 150.03087 a 8.1306327,8.1306327 36.425469 0 1 7.76915,5.733245 l 21.461258,69.548944 a 4.4276997,4.4276997 126.42547 0 1 -4.230848,5.733245 h -200.03 a 4.4276992,4.4276992 53.574534 0 1 -4.23085,-5.733245 l 21.46127,-69.548944 a 8.1306336,8.1306336 143.57453 0 1 7.76915,-5.733245 z"
       sodipodi:nodetypes="ccccc"
       inkscape:path-effect="#path-effect40"
       inkscape:original-d="m -282.46643,18.454075 h 162.03087 L -95.436,99.469509 h -212.03 z"
       inkscape:label="right shoulder" />
    <path
       id="base"
       style="vector-effect:non-scaling-stroke;fill:none;stroke:#000000;stroke-width:0.905023;stroke-dasharray:none;-inkscape-stroke:hairline;fill-opacity:1"
       d="M 122.89844 -1.546875 A 8.1306327 8.1306327 0 0 0 115.12891 4.1875 L 93.667969 73.736328 A 4.4276997 4.4276997 0 0 0 93.472656 74.933594 A 166.52075 336.23375 7.3692155 0 0 -7.8710938 255.9668 A 166.52075 336.23375 7.3692155 0 0 46.285156 687.87305 A 166.52075 336.23375 7.3692155 0 0 281.51367 496.15625 A 166.52075 336.23375 7.3692155 0 0 292.32812 453.3457 L 309.37305 453.3457 A 90 90 0 0 0 367.55078 474.67969 A 90 90 0 0 0 425.73047 453.3457 L 698.26953 453.3457 A 90 90 0 0 0 756.44727 474.67969 A 90 90 0 0 0 814.62695 453.3457 L 831.67188 453.3457 A 336.23375 166.52075 82.630785 0 0 842.48633 496.15625 A 336.23375 166.52075 82.630785 0 0 1077.7148 687.87305 A 336.23375 166.52075 82.630785 0 0 1131.8711 255.9668 A 336.23375 166.52075 82.630785 0 0 1030.5273 74.933594 A 4.4276992 4.4276992 0 0 0 1030.332 73.736328 L 1008.8711 4.1875 A 8.1306336 8.1306336 0 0 0 1001.1016 -1.546875 L 851.07031 -1.546875 A 8.1306327 8.1306327 0 0 0 843.30078 4.1875 L 834.30273 33.345703 L 289.69727 33.345703 L 280.69922 4.1875 A 8.1306336 8.1306336 0 0 0 272.92969 -1.546875 L 122.89844 -1.546875 z "
       inkscape:export-filename="ps4-controller.svg"
       inkscape:export-xdpi="96"
       inkscape:export-ydpi="96" />
  </g>
</svg>
